# xmcd
#
# Track frame offsets:
# 200
# 25880
# 47462
# 64112
# 82787
# 115037
# 131312
# 177422
# 191087
#
# Disc length: 3089 seconds
#
#
# Revision: 0
# Processed by: cddbd v1.5.2PL0 Copyright (c) Steve Scherf et al.
# Submitted via: FreeRIP 2.95 
#
DISCID=6a0c0f09
DTITLE=Larry Coryell - Live from bahia
DYEAR=2002
DGENRE=Club
TTITLE0=The Harbor
TTITLE1=Old City New City
TTITLE2=The Crab Peddler
TTITLE3=Oshum, Godness Of Love
TTITLE4=Bloco Loco
TTITLE5=Panama
TTITLE6=Bahian Night Walk
TTITLE7=Gabrielás Song
TTITLE8=Vera Cruz
EXTD=Rippelte: Tián
EXTT0=
EXTT1=
EXTT2=
EXTT3=
EXTT4=
EXTT5=
EXTT6=
EXTT7=
EXTT8=
PLAYORDER=
